<svg width="24" height="24" viewBox="0 0 24 24" fill="none" xmlns="http://www.w3.org/2000/svg">
<path d="M2 22V4C2 3.45 2.19583 2.97917 2.5875 2.5875C2.97917 2.19583 3.45 2 4 2H20C20.55 2 21.0208 2.19583 21.4125 2.5875C21.8042 2.97917 22 3.45 22 4V16C22 16.55 21.8042 17.0208 21.4125 17.4125C21.0208 17.8042 20.55 18 20 18H6L2 22ZM5.15 16H20V4H4V17.125L5.15 16Z" fill="black"/>
<path d="M19 7C19 7.49708 19 7.98963 19 8.48515C19 9.53775 19 10.5982 19 11.6533C19 12.4463 19 13.2081 19 14" stroke="black" stroke-width="5" stroke-linecap="square"/>
<path d="M18.764 3.88483C18.8847 3.86974 19.0935 3.73393 19.2121 3.67461C19.4018 3.57978 19.5968 3.5861 19.8068 3.5861C20.1007 3.5861 20.3679 3.53632 20.656 3.53632" stroke="black" stroke-linecap="square"/>
<path d="M11.2462 15.9831C12.7083 16.105 14.1802 15.9831 15.6468 15.9831C16.6932 15.9831 17.7213 15.8337 18.764 15.8337" stroke="black" stroke-linecap="square"/>
<path d="M20.2703 4C20.2779 3.90155 20.5282 3.10838 20.3844 3.0493C20.0998 2.93229 20.2569 4.17086 20.517 3.42269C20.6547 3.02648 20.3569 3.03451 20.1856 3.18965C20.0801 3.28525 19.9495 3.52203 20.02 3.71399C20.1283 4.00921 20.5011 3.98321 20.6864 3.93115C20.8546 3.88385 20.9281 3.70565 20.9588 3.47566C20.9715 3.38069 21.0352 3.16436 20.9735 3.08372C20.8331 2.90012 20.2506 3.04156 20.1378 3.28499" stroke="black" stroke-linecap="square"/>
<mask id="mask0_78_39" style="mask-type:alpha" maskUnits="userSpaceOnUse" x="4" y="4" width="16" height="14">
<path d="M13 11H20V16H13V11Z" fill="black"/>
<path d="M13 4H20V9H13V4Z" fill="black"/>
<path d="M4 4H11V9H4V4Z" fill="black"/>
<path d="M4 11H11V18H4V11Z" fill="black"/>
<path d="M4 9H8V11H4V9Z" fill="black"/>
<path d="M16 9H20V11H16V9Z" fill="black"/>
<path d="M11 4H13V6H11V4Z" fill="black"/>
<path d="M11 14H13V16H11V14Z" fill="black"/>
</mask>
<g mask="url(#mask0_78_39)">
<path d="M11.3629 14.2045V6.70455H12.6357V14.2045H11.3629ZM8.24929 11.0909V9.81818H15.7493V11.0909H8.24929Z" fill="white"/>
<path d="M4.83289 7.14154V15.3859" stroke="black" stroke-width="5" stroke-linecap="square"/>
<path d="M5.26227 6.11096V8.17205" stroke="black" stroke-width="5" stroke-linecap="square"/>
<path d="M8.13919 6.58329C8.23073 7.49873 9.15965 8.1477 9.91401 8.49409C10.4471 8.73889 10.9938 8.8188 11.5433 8.9879C11.6133 9.00942 11.6465 9.11648 11.6578 9.17874C11.7069 9.44865 11.1772 9.77913 11.009 9.91825C10.3466 10.466 9.693 11.0339 8.97889 11.5142C8.46397 11.8605 7.88556 12.1384 7.45454 12.5948C7.34282 12.7131 6.92733 13.2675 7.1325 13.4727C7.22031 13.5605 7.58261 13.4965 7.69071 13.4965C8.00102 13.4965 8.22247 13.4281 8.50656 13.3248C8.96166 13.1593 9.40833 12.8185 9.80189 12.5447C10.4037 12.126 10.9912 11.7028 11.5481 11.2255C11.7182 11.0797 11.9184 10.9423 12.061 10.7675C12.0689 10.7578 12.1163 10.6761 12.1087 10.6888C11.9686 10.9222 11.6365 11.1086 11.4264 11.2732C10.8847 11.6979 10.3259 12.0976 9.79951 12.5423C9.61039 12.7021 9.22762 12.9548 9.21267 13.2389C9.20675 13.3514 9.2789 13.3555 9.35103 13.4202C9.92609 13.9358 10.9312 13.8515 11.6507 13.84C12.2847 13.83 12.9395 13.6557 13.5066 13.3772C13.6101 13.3264 14.284 12.9808 13.874 13.1721C12.3084 13.9027 10.4953 14.1865 8.79759 14.4316C8.48946 14.4761 7.91531 14.5263 7.76228 14.8706C7.63302 15.1614 9.80501 15.0554 9.97127 15.0423C11.2208 14.9439 12.4779 14.9135 13.7308 14.9135C14.6745 14.9135 15.7431 15.0055 16.6316 14.6106C16.9897 14.4514 16.8988 14.2043 16.8988 13.8567C16.8988 13.3977 16.932 12.9246 16.875 12.4684C16.8091 11.9414 16.6547 11.3928 16.4933 10.8892C16.276 10.2113 15.9557 9.43628 15.551 8.84476C15.3473 8.54708 14.9364 8.6916 14.7018 8.91156C13.8172 9.74083 13.3353 11.2463 13.4875 12.4421C13.5329 12.799 13.6078 13.1418 13.6998 13.4894C13.7384 13.6352 13.7468 13.8306 13.9241 13.6993C15.3645 12.6323 14.6734 10.6439 14.4417 9.20259C14.3487 8.62349 14.3354 8.04527 14.1412 7.48502C14.0002 7.07833 13.8768 6.65814 13.435 6.54035C12.8766 6.39143 12.3317 6.55913 11.789 6.65963C11.2929 6.75151 10.7978 6.75505 10.2957 6.75505C9.82337 6.75505 9.36775 6.79922 8.92164 6.62623C8.56785 6.48905 8.11263 6.40814 7.79567 6.19684" stroke="black" stroke-width="5" stroke-linecap="square"/>
<path d="M7.75277 6.06803C7.93333 6.06803 8.13002 5.97556 8.31098 5.94875C8.55159 5.91311 8.79753 5.89627 9.04095 5.89627C9.47194 5.89627 9.90292 5.89627 10.3339 5.89627C12.058 5.89627 13.807 5.88271 15.5248 5.73406C16.1431 5.68055 16.7485 5.72451 17.3521 5.72451C17.5493 5.72451 17.8865 5.65781 17.8865 5.93921C17.8865 7.33315 17.8865 8.72709 17.8865 10.121C17.8865 11.0319 18.0454 11.9424 18.0988 12.8501C18.1222 13.249 18.1012 13.6548 18.1012 14.0547C18.1012 14.1516 18.0817 14.1978 18.0057 14.2599C17.8818 14.3613 17.5842 14.3124 17.4451 14.3124C16.8953 14.3124 16.3502 14.3063 15.8015 14.2694C14.3721 14.1734 12.9468 13.9769 11.5124 13.9689C10.6937 13.9643 9.85664 14.0201 9.04095 13.945C8.23099 13.8704 7.53392 13.8358 6.81526 13.413C6.40807 13.1735 6.22525 12.4955 6.20934 12.0581C6.13725 10.0757 8.08421 8.49291 9.62779 7.5709C10.6207 6.97782 11.698 6.52748 12.822 6.26125C13.8251 6.02369 14.876 5.76745 15.9112 5.76745" stroke="black" stroke-width="5" stroke-linecap="square"/>
<path d="M19.3034 5.08042C19.4221 4.9618 19.5114 4.78434 19.647 4.69397" stroke="black" stroke-width="5" stroke-linecap="square"/>
<path d="M16.6841 6.49744C16.6623 6.69375 16.4335 7.0855 16.3358 7.25365C16.1341 7.60108 15.9253 8.01908 15.6631 8.31043C15.4943 8.49804 15.3731 8.75398 15.2147 8.95452C14.7615 9.52806 14.2234 10.0603 13.6307 10.4884C12.1302 11.5721 10.2395 11.5122 8.5352 12.0366C7.75312 12.2773 6.93358 12.4761 6.27373 12.9789C5.95339 13.223 5.98758 13.6586 5.99223 14.0214C5.99651 14.3548 6.10325 14.4442 6.43117 14.4746C6.99527 14.527 7.54592 14.5306 8.1058 14.6368C9.75423 14.9495 11.4867 14.9994 13.1631 14.9994" stroke="black" stroke-width="5" stroke-linecap="square"/>
<path d="M19.7328 15.4288C19.7918 15.4878 19.877 15.5948 19.9475 15.634C20.0016 15.664 20.1392 15.7294 20.1193 15.7294" stroke="black" stroke-width="5" stroke-linecap="square"/>
<path d="M20.2079 4.33289C20.2079 4.8092 20.3126 5.34137 20.3959 5.80991C20.4691 6.22125 20.407 6.69039 20.407 7.1099C20.407 7.61239 20.407 8.11487 20.407 8.61735C20.407 9.28713 20.5142 10.0676 20.3821 10.7278C20.3381 10.9479 20.3572 11.179 20.3572 11.4027C20.3572 11.6878 20.3074 11.9629 20.3074 12.2463C20.3074 12.7193 20.3074 13.1922 20.3074 13.6652C20.3074 13.8578 20.2079 14.0497 20.2079 14.2405" stroke="black" stroke-width="5" stroke-linecap="square"/>
<path d="M20.1083 14.3899C20.1083 14.5672 20.1419 14.8627 20.0198 14.9984C19.7677 15.2785 19.4823 15.2351 19.1374 15.3884C18.4283 15.7036 17.6698 15.8337 16.897 15.8337C16.0255 15.8337 18.6612 16.0888 19.5108 15.8946C19.8881 15.8083 19.6694 16.1767 19.7847 16.1767C19.9298 16.1767 20.1042 15.8916 20.1581 15.7839" stroke="black" stroke-width="5" stroke-linecap="square"/>
<path d="M11.3955 9.01288C12.0667 9.33081 12.8671 9.53093 13.5861 9.69884C14.3239 9.87109 15.0408 10.0389 15.7657 10.2576C16.2481 10.403 16.099 10.5583 16.0755 11.0044C16.0627 11.2477 15.9317 11.6668 15.7768 11.8507C15.5897 12.0729 15.5649 12.4327 15.4504 12.6944C15.0099 13.7013 14.0825 14.103 13.0523 14.2903C10.3867 14.775 7.62549 14.4895 4.93424 14.4895C4.03337 14.4895 6.72359 14.2776 7.61999 14.188C9.58013 13.992 11.5377 13.7664 13.5059 13.668C14.9577 13.5954 16.4039 13.482 17.854 13.3941C17.911 13.3907 18.5323 13.353 18.4155 13.2946" stroke="black" stroke-width="5" stroke-linecap="square"/>
<path d="M17.37 14.3899C17.37 13.7127 17.4862 13.0621 17.6189 12.3984C17.7821 11.5828 17.8679 10.7894 17.8679 9.95882C17.8679 9.81492 17.9513 9.74034 18.0449 9.62968C18.2187 9.42427 18.2903 9.1026 18.3685 8.85244C18.4939 8.45128 18.6583 8.07666 18.8138 7.68798C19.0241 7.16223 19.2981 6.65696 19.4887 6.12521C19.6144 5.77453 19.5259 5.98481 19.5081 6.20819C19.4014 7.5419 19.1623 8.86784 19.1623 10.2078" stroke="black" stroke-width="5" stroke-linecap="square"/>
<path d="M20.407 5.37842C20.407 7.21029 20.5066 9.02436 20.5066 10.855" stroke="black" stroke-width="5" stroke-linecap="square"/>
<path d="M17.6189 5.37842C17.5276 5.49256 17.5728 5.69768 17.5664 5.83203C17.5338 6.5159 17.4374 7.21715 17.2345 7.87054C16.4047 10.5419 13.0187 10.1654 10.8202 10.7167C10.287 10.8504 9.76509 11.0246 9.26022 11.2422C8.96254 11.3706 8.67443 11.5601 8.36681 11.6627C8.16628 11.7295 8.78081 11.5766 8.98915 11.541C9.74752 11.4111 10.493 11.2113 11.2406 11.032C12.8648 10.6426 14.5121 10.3127 16.1198 9.85926C16.6032 9.72293 17.1237 9.58412 17.5691 9.36139" stroke="black" stroke-width="5" stroke-linecap="square"/>
<path d="M18.8636 5.37842C18.9228 5.6941 19.0745 5.99867 19.1623 6.30778C19.3543 6.98314 19.4799 7.67654 19.6104 8.36565C19.7532 9.11904 19.8923 9.87207 20.0198 10.6282C20.083 11.0034 20.1246 11.3964 20.2577 11.7512" stroke="black" stroke-width="5" stroke-linecap="square"/>
<path d="M20.4568 5.42822C20.4568 7.52405 20.4858 9.61809 20.5066 11.7125C20.5142 12.4817 20.6212 13.2532 20.5038 14.0165C20.2687 15.5445 17.9148 15.2757 16.85 15.5378C16.5959 15.6003 15.8494 15.8446 16.0976 15.7618C16.4203 15.6543 16.7714 15.6776 17.11 15.6844C17.73 15.6968 18.5516 15.9214 19.1125 15.5848" stroke="black" stroke-width="5" stroke-linecap="square"/>
</g>
</svg>
