<svg width="558" height="564" viewBox="0 0 558 564" fill="none" xmlns="http://www.w3.org/2000/svg">
<path d="M543.5 282C543.5 303.799 532.884 324.795 515.174 344.148C497.47 363.494 472.845 381.005 445.285 395.762C390.123 425.298 323.777 443.5 279 443.5C234.225 443.5 168.383 425.299 113.723 395.766C86.4149 381.011 62.0393 363.502 44.5223 344.158C26.9995 324.808 16.5 303.808 16.5 282C16.5 260.192 26.9995 239.192 44.5223 219.842C62.0393 200.498 86.4149 182.989 113.723 168.234C168.383 138.701 234.225 120.5 279 120.5C323.777 120.5 390.123 138.702 445.285 168.238C472.845 182.995 497.47 200.506 515.174 219.852C532.884 239.205 543.5 260.201 543.5 282Z" fill="white" stroke="black" stroke-width="5"/>
<circle cx="278.5" cy="281.5" r="130.5" fill="black"/>
</svg>
