<svg xmlns="http://www.w3.org/2000/svg" fill="none" viewBox="0 0 24 24" id="Galaxy-1--Streamline-Core.svg" height="24" width="24"><desc>Galaxy 1 Streamline Icon: https://streamlinehq.com</desc><g id="galaxy-1--science-space-universe-astronomy"><path id="Ellipse 962" fill="#2859c5" d="M8.754857142857142 12a3.245142857142857 3.245142857142857 0 1 0 6.490285714285714 0 3.245142857142857 3.245142857142857 0 1 0 -6.490285714285714 0" stroke-width="1"></path><path id="Union" fill="#8fbffa" fill-rule="evenodd" d="M12.955919999999999 0.3394594285714286C12.340971428571429 -0.015580319999999998 11.55462857142857 0.19511657142857142 11.1996 0.8100634285714285c-0.35504571428571424 0.6149485714285714 -0.14434285714285713 1.4012794285714285 0.47060571428571424 1.756325142857143 2.141537142857143 1.2364114285714285 3.23784 3.3902228571428568 3.287502857142857 5.737371428571429 -2.9384742857142854 -3.738325714285714 -8.002817142857142 -5.6032971428571425 -12.577971428571429 -2.96184 -0.6149485714285714 0.3550285714285714 -0.8256377142857142 1.1413714285714285 -0.47060571428571424 1.75632 0.35504571428571424 0.6149485714285714 1.1413714285714285 0.8256342857142857 1.75632 0.47058857142857136 2.14464 -1.2381942857142858 4.56192 -1.10856 6.621394285714286 0.026537142857142856 -4.695548571428571 0.6864171428571428 -8.863018285714285 4.131085714285715 -8.863018285714285 9.407142857142857 0 0.7100057142857142 0.5756297142857143 1.2856628571428572 1.285721142857143 1.2856628571428572 0.7100742857142858 0 1.2857142857142856 -0.5756571428571428 1.2857142857142856 -1.2856628571428572 0 -2.4584742857142854 1.3187142857142857 -4.479051428571428 3.32424 -5.698594285714286 -1.741285714285714 4.405285714285714 -0.8371199999999999 9.723 3.7242857142857138 12.356485714285714 0.6149485714285714 0.3550285714285714 1.4012742857142857 0.14434285714285713 1.7563028571428572 -0.4705714285714286 0.35504571428571424 -0.6149142857142857 0.14436 -1.4012571428571428 -0.47058857142857136 -1.7562857142857142 -2.1294342857142854 -1.229485714285714 -3.219942857142857 -3.382285714285714 -3.2730342857142856 -5.729245714285714 2.9443542857142857 3.711188571428571 8.002131428571428 5.587474285714285 12.563759999999998 2.953645714285714 0.6150857142857142 -0.3550285714285714 0.8257714285714286 -1.1413714285714285 0.47074285714285713 -1.7562342857142856 -0.3550285714285714 -0.6149485714285714 -1.1413714285714285 -0.8256514285714285 -1.7564571428571427 -0.47060571428571424 -2.1262285714285714 1.227582857142857 -4.531937142857142 1.0978114285714284 -6.5890628571428564 -0.02514857142857143 4.697177142857142 -0.6836914285714285 8.830662857142856 -4.134359999999999 8.830662857142856 -9.40854857142857 0 -0.7100742857142858 -0.5756571428571428 -1.2857142857142856 -1.2857142857142856 -1.2857142857142856s-1.2857142857142856 0.5756399999999999 -1.2857142857142856 1.2857142857142856c0 2.4727542857142857 -1.3170857142857142 4.499022857142856 -3.3247542857142856 5.715634285714286 1.7681828571428568 -4.413925714285714 0.8510399999999999 -9.732154285714286 -3.7240114285714285 -12.37358057142857ZM11.982685714285713 10.040485714285714c-1.0742571428571428 0.009291428571428572 -1.9422342857142856 0.8830114285714286 -1.9422342857142856 1.9594457142857142 0 0.34764 0.09053142857142857 0.674142857142857 0.24929142857142855 0.9572057142857143 0.0008228571428571429 0.0013885714285714285 0.0016285714285714284 0.002777142857142857 0.0024342857142857144 0.004165714285714286 0.009034285714285715 0.01565142857142857 0.018085714285714285 0.03125142857142857 0.027188571428571427 0.04683428571428571 0.34268571428571426 0.5699828571428571 0.9671142857142857 0.9513257142857142 1.6806171428571428 0.9513257142857142 0.7257085714285714 0 1.3592742857142857 -0.39450857142857143 1.6979485714285714 -0.9807428571428571 0.003257142857142857 -0.005862857142857142 0.006582857142857143 -0.01169142857142857 0.009942857142857142 -0.017519999999999997l0.0025199999999999997 -0.004371428571428571c0.15865714285714283 -0.2829942857142857 0.24912 -0.6093771428571428 0.24912 -0.9568971428571428 0 -0.35801142857142854 -0.09601714285714284 -0.6936 -0.2636914285714286 -0.9824228571428572 -0.00312 -0.005245714285714285 -0.006222857142857143 -0.010508571428571428 -0.009274285714285714 -0.015805714285714288 -0.34032 -0.5737371428571428 -0.9650571428571427 -0.95892 -1.6799485714285713 -0.9612857142857142 -0.00797142857142857 0.00001714285714285714 -0.01594285714285714 0.00003428571428571428 -0.023914285714285714 0.00006857142857142857Z" clip-rule="evenodd" stroke-width="1"></path></g></svg>